<svg xmlns="http://www.w3.org/2000/svg" width="33" height="40">
  <path d="M16.684.023c-1.985.137-3.872.692-6.125 1.809-1.454.719-3.309 1.691-3.735 1.953-.418.258-.492.32-1.058.88a28 28 0 0 1-1.809 1.663c-.312.254-.383.34-.66.734-.172.25-.352.5-.399.563-.09.113-.988 1.645-1.234 2.094-.633 1.168-1.16 2.8-1.394 4.304-.208 1.313-.254 2.184-.25 4.536 0 2.14.027 2.761.14 3.144.035.117.082.383.11.59.066.582.398 1.816.703 2.625.05.137.187.457.304.719.118.254.508 1.144.868 1.976l.656 1.508.27.29c.144.155.515.581.82.94.773.907 1.293 1.458 1.906 2.028 2.223 2.043 3.914 3.121 6.27 3.984a27 27 0 0 0 3.562 1.028c.379.078.465.086 1.137.086h.734l.64.828c.356.457.758 1.011.903 1.238l.262.41.687.024c1.113.039 1.645-.016 1.828-.18a.44.44 0 0 0 .106-.188l.039-.125.14.02c.274.039.403-.024.711-.332l.282-.285.632-.106c.352-.058.645-.113.653-.125.012-.015.058-.27.101-.57.07-.438.266-1.27.418-1.754.012-.035.137-.078.43-.148.453-.11.746-.239 1.082-.473.29-.195 1.063-.629 1.262-.703.16-.055.797-.469 1.328-.86.398-.293 1.445-1.207 1.867-1.628.348-.356.45-.5.867-1.293.153-.293.414-.727.578-.97.356-.51.676-1.136.676-1.304 0-.066-.008-.113-.015-.113-.008 0-.223.133-.48.3-1.548 1-2.852 1.805-3.29 2.024-.633.32-1.039.469-2.2.797-.245.07-.46.125-.476.125s.063-.29.176-.648c.633-2.036.8-2.84 1.129-5.442.062-.492.14-1.074.176-1.297.058-.367.062-.492.047-1.234-.055-2.328-.168-3.582-.43-4.742-.121-.524-.629-2.028-1.082-3.2l-.137-.359.469-.621.469-.617v-.192c0-.28-.063-1.035-.098-1.254a2.7 2.7 0 0 0-.246-.734c-.086-.156-.567-.75-.852-1.062l-.187-.204.215-.218c.164-.164.343-.414.722-1.012.278-.437.496-.8.496-.809A34 34 0 0 0 26.176 9l-1.211.57-.254-.054c-.89-.188-1.414-.188-2.996.015-.98.121-1.059.125-1.344.094-.625-.074-.976-.21-1.492-.59-.531-.387-.672-.453-1.004-.469l-.277-.011.062.148c.375.938.465 1.133.719 1.496l.172.246-.074.047q-.199.136-.743.723l-.363.39.02.72c.02.952.074 1.171.437 1.777.117.203.184.343.184.406 0 .074-.082.215-.32.55-.383.544-.547.88-.844 1.688-.598 1.649-.801 2.54-1.063 4.61a72 72 0 0 0-.242 2.859c-.055.816-.055 3.445 0 3.984.105 1.047.395 2.797.539 3.262.035.11.063.207.05.215-.034.035-.675-.176-.976-.32a7.5 7.5 0 0 1-1.965-1.34 7.2 7.2 0 0 0-1.363-1.004c-.152-.086-.223-.145-.262-.235-.027-.062-.207-.293-.386-.504-.926-1.074-2.04-2.699-2.586-3.777-.727-1.441-1.168-2.914-1.45-4.86-.28-1.94-.289-3.527-.011-5.124.187-1.11.805-3.297 1.172-4.172.304-.715 1.312-2.227 2.105-3.137.926-1.07 2.602-2.539 3.98-3.496.782-.535 1.91-.965 3.731-1.41 1.531-.379 2.3-.465 4.258-.5a41 41 0 0 0 2.855-.129c1.192-.098 1.606-.195 1.606-.387 0-.031-.05-.113-.113-.183-.098-.106-.2-.164-.516-.297-.469-.2-.656-.254-.992-.297-.496-.066-3.922-.332-5.223-.41-1.45-.086-2.738-.114-3.312-.07" style="stroke:none;fill-rule:nonzero;fill:#f5f5f5;fill-opacity:1"/>
</svg>
