<?xml version="1.0" encoding="UTF-8"?>
<svg xmlns="http://www.w3.org/2000/svg" xmlns:xlink="http://www.w3.org/1999/xlink" width="px" height="32px" viewBox="0 0 32 32" version="1.1">
<g id="surface1">
<path style=" stroke:none;fill-rule:nonzero;fill:rgb(17.254902%,66.274512%,73.725492%);fill-opacity:1;" d="M 14.28125 19.054688 C 14.03125 18.800781 13.6875 18.660156 13.332031 18.660156 C 12.976562 18.660156 12.636719 18.800781 12.386719 19.054688 L 9.332031 22.121094 L 9.332031 5.332031 C 9.332031 4.597656 8.738281 4 8 4 C 7.261719 4 6.667969 4.597656 6.667969 5.332031 L 6.667969 22.121094 L 3.613281 19.054688 C 3.089844 18.53125 2.242188 18.53125 1.71875 19.054688 C 1.195312 19.574219 1.195312 20.425781 1.71875 20.945312 L 7.054688 26.28125 C 7.304688 26.53125 7.644531 26.675781 8 26.675781 C 8.355469 26.675781 8.695312 26.53125 8.945312 26.28125 L 14.28125 20.945312 C 14.53125 20.695312 14.675781 20.355469 14.675781 20 C 14.675781 19.644531 14.53125 19.304688 14.28125 19.054688 Z M 14.28125 19.054688 "/>
<path style=" stroke:none;fill-rule:nonzero;fill:rgb(0%,0%,0%);fill-opacity:1;" d="M 26.667969 22.667969 L 20 22.667969 C 19.261719 22.667969 18.667969 22.070312 18.667969 21.332031 C 18.667969 20.597656 19.261719 20 20 20 L 26.667969 20 C 27.402344 20 28 20.597656 28 21.332031 C 28 22.070312 27.402344 22.667969 26.667969 22.667969 Z M 26.667969 16 L 17.332031 16 C 16.597656 16 16 15.402344 16 14.667969 C 16 13.929688 16.597656 13.332031 17.332031 13.332031 L 26.667969 13.332031 C 27.402344 13.332031 28 13.929688 28 14.667969 C 28 15.402344 27.402344 16 26.667969 16 Z M 26.667969 9.332031 L 13.332031 9.332031 C 12.597656 9.332031 12 8.738281 12 8 C 12 7.261719 12.597656 6.667969 13.332031 6.667969 L 26.667969 6.667969 C 27.402344 6.667969 28 7.261719 28 8 C 28 8.738281 27.402344 9.332031 26.667969 9.332031 Z M 26.667969 9.332031 "/>
</g>
</svg>
