<?xml version="1.0" encoding="UTF-8"?>
<svg xmlns="http://www.w3.org/2000/svg" xmlns:xlink="http://www.w3.org/1999/xlink" width="px" height="32px" viewBox="0 0 32 32" version="1.1">
<g id="surface1">
<path style=" stroke:none;fill-rule:nonzero;fill:rgb(17.254902%,66.274512%,73.725492%);fill-opacity:1;" d="M 14.28125 9.71875 L 8.945312 4.386719 C 8.695312 4.132812 8.355469 3.992188 8 3.992188 C 7.644531 3.992188 7.304688 4.132812 7.054688 4.386719 L 1.71875 9.71875 C 1.195312 10.242188 1.195312 11.089844 1.71875 11.613281 C 2.242188 12.136719 3.089844 12.136719 3.613281 11.613281 L 6.667969 8.546875 L 6.667969 25.332031 C 6.667969 26.070312 7.261719 26.667969 8 26.667969 C 8.738281 26.667969 9.332031 26.070312 9.332031 25.332031 L 9.332031 8.546875 L 12.386719 11.613281 C 12.636719 11.867188 12.976562 12.007812 13.332031 12.007812 C 13.6875 12.007812 14.03125 11.867188 14.28125 11.613281 C 14.53125 11.363281 14.675781 11.023438 14.675781 10.667969 C 14.675781 10.3125 14.53125 9.96875 14.28125 9.71875 Z M 14.28125 9.71875 "/>
<path style=" stroke:none;fill-rule:nonzero;fill:rgb(0%,0%,0%);fill-opacity:1;" d="M 26.667969 24 L 13.332031 24 C 12.597656 24 12 23.402344 12 22.667969 C 12 21.929688 12.597656 21.332031 13.332031 21.332031 L 26.667969 21.332031 C 27.402344 21.332031 28 21.929688 28 22.667969 C 28 23.402344 27.402344 24 26.667969 24 Z M 26.667969 17.332031 L 17.332031 17.332031 C 16.597656 17.332031 16 16.738281 16 16 C 16 15.261719 16.597656 14.667969 17.332031 14.667969 L 26.667969 14.667969 C 27.402344 14.667969 28 15.261719 28 16 C 28 16.738281 27.402344 17.332031 26.667969 17.332031 Z M 26.667969 10.667969 L 20 10.667969 C 19.261719 10.667969 18.667969 10.070312 18.667969 9.332031 C 18.667969 8.597656 19.261719 8 20 8 L 26.667969 8 C 27.402344 8 28 8.597656 28 9.332031 C 28 10.070312 27.402344 10.667969 26.667969 10.667969 Z M 26.667969 10.667969 "/>
</g>
</svg>
