<svg xmlns="http://www.w3.org/2000/svg" width="px" height="32" viewBox="0 0 32 32">
  <path d="M14.28 19.05a1.33 1.33 0 0 0-1.9 0l-3.05 3.07V5.33a1.33 1.33 0 1 0-2.66 0v16.8L3.6 19.04a1.34 1.34 0 0 0-1.9 1.9l5.34 5.33a1.34 1.34 0 0 0 1.9 0l5.33-5.33a1.34 1.34 0 0 0 0-1.9m0 0" style="stroke:none;fill-rule:nonzero;fill:#8a8aff;fill-opacity:1"/>
  <path d="M26.67 22.67H20A1.33 1.33 0 1 1 20 20h6.67a1.33 1.33 0 0 1 0 2.67m0-6.67h-9.34a1.33 1.33 0 0 1 0-2.67h9.34a1.33 1.33 0 0 1 0 2.67m0-6.67H13.33a1.33 1.33 0 1 1 0-2.66h13.34a1.33 1.33 0 1 1 0 2.66m0 0" style="stroke:none;fill-rule:nonzero;fill:#000;fill-opacity:1"/>
</svg>
