<svg xmlns="http://www.w3.org/2000/svg" width="px" height="32" viewBox="0 0 32 32">
  <path d="M14.28 9.72 8.95 4.39a1.3 1.3 0 0 0-1.9 0L1.72 9.72a1.34 1.34 0 1 0 1.9 1.9l3.05-3.07v16.78a1.33 1.33 0 1 0 2.66 0V8.55l3.06 3.06a1.3 1.3 0 0 0 1.9 0 1.34 1.34 0 0 0 0-1.9m0 0" style="stroke:none;fill-rule:nonzero;fill:#8a8aff;fill-opacity:1"/>
  <path d="M26.67 24H13.33a1.33 1.33 0 0 1 0-2.67h13.34a1.33 1.33 0 0 1 0 2.67m0-6.67h-9.34a1.33 1.33 0 1 1 0-2.66h9.34a1.33 1.33 0 1 1 0 2.66m0-6.66H20A1.33 1.33 0 1 1 20 8h6.67a1.33 1.33 0 0 1 0 2.67m0 0" style="stroke:none;fill-rule:nonzero;fill:#000;fill-opacity:1"/>
</svg>
