<svg xmlns="http://www.w3.org/2000/svg" width="42" height="40">
  <path d="M14.75.785c.008.04.05.176.082.297.293 1.016.54 2.3.621 3.29.05.554.024 1.585-.05 1.987-.153.825-.5 1.43-.962 1.645-.242.121-.617.144-.925.066-.317-.078-.782-.32-1.157-.605-.488-.363-1.226-1.121-1.722-1.762-.11-.144-.055-.043.125.227.566.851 1.02 1.843 1.164 2.547.078.378.054.93-.047 1.191-.145.367-.504.656-.957.766-.246.054-.895.066-1.211.015-1.242-.199-2.899-.945-4.707-2.12-.234-.153-.367-.231-.3-.173l.526.43c1.786 1.46 3.016 2.95 3.438 4.168.098.281.105.34.11.719 0 .398-.005.418-.106.629-.192.378-.531.62-1.086.757-.242.059-.383.075-.86.075-.714 0-1.351-.098-2.265-.34a1.3 1.3 0 0 0-.25-.055c-.004 0 .156.07.36.149.538.207 1.3.59 1.695.847.617.414.964.766 1.175 1.188a1 1 0 0 1 .13.527c.011.227 0 .316-.06.469-.456 1.222-2.84 2.074-6.296 2.25l-.477.023.68.043c3.254.195 5.477.973 6.035 2.106.102.203.11.246.11.55 0 .317-.008.344-.122.579-.207.414-.574.789-1.171 1.183-.395.258-1.168.649-1.7.852-.383.144-.468.199-.187.113a18 18 0 0 1 1.508-.316c.164-.024.547-.043.851-.043.461 0 .606.015.848.074.562.14.918.39 1.086.77.133.285.152.718.058 1.097-.175.684-.601 1.43-1.324 2.297-.555.664-1.668 1.719-2.531 2.39a3 3 0 0 0-.285.243c0 .004.172-.106.386-.246 1.57-1.051 3.063-1.762 4.336-2.067.465-.11 1.254-.14 1.59-.062.469.113.828.394.973.77.101.26.125.812.047 1.19-.133.645-.528 1.54-1.051 2.364-.152.242-.246.406-.207.36.043-.048.23-.266.418-.489.809-.953 1.652-1.594 2.36-1.809.327-.101.726-.082.992.043.468.227.812.813.968 1.664.074.391.086 1.801.02 2.336a21 21 0 0 1-.563 2.809c-.07.254-.125.46-.12.465.003.008.073-.164.152-.375.605-1.649 1.421-3.164 2.183-4.082.754-.906 1.54-1.364 2.149-1.254.761.133 1.3.945 1.574 2.371.082.422.164 1.121.164 1.418 0 .129.012.223.031.223.02 0 .031-.094.031-.223 0-.297.082-.996.164-1.43.579-3 2.36-3.176 4.23-.418.59.871 1.165 2.028 1.665 3.36.086.23.16.418.164.41a2 2 0 0 0-.074-.285c-.305-1.047-.559-2.368-.64-3.352-.044-.559-.02-1.594.054-1.988.152-.832.5-1.426.965-1.649.265-.125.66-.144.992-.043.738.223 1.668.961 2.535 2.016.16.191.293.352.3.352a9 9 0 0 0-.257-.418c-.531-.828-.969-1.832-1.078-2.453-.055-.333-.024-.883.066-1.114.145-.375.504-.656.973-.77.336-.077 1.125-.046 1.59.063 1.23.293 2.668.973 4.207 1.98.285.188.515.337.515.329s-.128-.113-.285-.238c-.87-.68-1.972-1.72-2.531-2.391-.723-.867-1.148-1.613-1.324-2.297a1.8 1.8 0 0 1-.051-.594c.012-.293.027-.355.113-.531.192-.367.54-.605 1.082-.742.243-.059.387-.074.848-.074.309 0 .691.02.852.043.347.05 1.277.246 1.507.316.282.086.192.031-.187-.113a11 11 0 0 1-1.7-.852c-.597-.394-.964-.77-1.171-1.183-.114-.235-.121-.262-.121-.579 0-.304.008-.347.11-.55.558-1.133 2.792-1.914 6.026-2.106l.688-.039-.688-.043c-1.898-.113-3.394-.402-4.507-.89-.817-.352-1.391-.844-1.579-1.344-.058-.153-.07-.242-.058-.469a1 1 0 0 1 .129-.527c.215-.43.547-.766 1.176-1.188a11 11 0 0 1 1.695-.848c.203-.078.363-.148.36-.148 0-.008-.118.02-.25.055-.915.242-1.555.34-2.266.34-.477 0-.618-.016-.86-.075-.539-.132-.894-.379-1.086-.746-.101-.191-.105-.207-.105-.625 0-.394.012-.449.11-.734.421-1.219 1.652-2.711 3.437-4.168l.527-.43c.066-.058-.062.02-.3.172-1.114.727-2.403 1.402-3.262 1.723a9 9 0 0 1-1.446.398c-.316.051-.965.04-1.21-.015-.454-.11-.813-.399-.958-.766-.101-.258-.125-.816-.05-1.188.14-.695.601-1.703 1.167-2.55.286-.43.27-.414-.148.101-.656.809-1.488 1.54-2.09 1.836-.402.2-.656.258-.992.242a1.07 1.07 0 0 1-.809-.379c-.296-.324-.492-.765-.609-1.386-.07-.395-.082-1.871-.016-2.367.133-.97.356-2.067.579-2.844.062-.215.109-.399.105-.399a7 7 0 0 0-.2.493c-.78 2.039-1.663 3.562-2.59 4.453-.608.582-1.23.86-1.714.761-.762-.16-1.281-.945-1.555-2.367-.082-.422-.164-1.125-.164-1.422 0-.37-.054-.242-.074.18a10 10 0 0 1-.254 1.684c-.293 1.156-.781 1.793-1.457 1.925-.258.047-.594-.015-.922-.18-1.113-.558-2.32-2.32-3.293-4.816-.129-.336-.25-.636-.27-.672-.023-.058-.023-.058-.007.012m7.586 10.121c3.82.59 6.867 3.469 7.648 7.235.133.644.176 1.105.176 1.87 0 1.016-.101 1.727-.37 2.63a8.9 8.9 0 0 1-2.298 3.847c-.777.782-1.504 1.309-2.445 1.774a9.12 9.12 0 0 1-8.137 0c-.941-.465-1.664-.992-2.445-1.774-1.48-1.488-2.36-3.308-2.625-5.441-.05-.422-.05-1.645 0-2.07.254-2.059 1.117-3.887 2.508-5.329a8.8 8.8 0 0 1 1.515-1.277 9.05 9.05 0 0 1 3.852-1.473c.594-.082.598-.082 1.414-.07.57.008.883.027 1.207.078" style="stroke:none;fill-rule:nonzero;fill:#FCE205;fill-opacity:1"/>
  <path d="M20.191 11.16c-.05.008-.27.035-.476.067a8.73 8.73 0 0 0-4.883 2.394 8.76 8.76 0 0 0-2.293 3.664c-.305.945-.414 1.668-.414 2.742.004.875.055 1.356.238 2.106.828 3.367 3.582 5.976 6.973 6.605a8.9 8.9 0 0 0 4.918-.472 8.92 8.92 0 0 0 5.383-6.32c.156-.704.195-1.102.195-1.934 0-.828-.039-1.223-.195-1.938-.715-3.246-3.274-5.875-6.492-6.676-.75-.187-1.137-.23-2.036-.242a14 14 0 0 0-.918.004" style="stroke:none;fill-rule:nonzero;fill:#FCD12A;fill-opacity:1"/>
</svg>
